# xmcd
#
# Track frame offsets:
#	200
#	19337
#	38047
#	52477
#	67885
#	85665
#	102445
#	117922
#	137595
#	153250
#	167925
#	179865
#	194862
#	214925
#
# Disc length: 3121 seconds
#
# Revision: 2
# Processed by: cddbd v1.5.1PL2 Copyright (c) Steve Scherf et al.
# Submitted via: audiograbber 1.81.02
#
DISCID=d40c2f0e
DTITLE=James Mee - Someday
DYEAR=1993
DGENRE=Country
TTITLE0=Big Times in a Small Town
TTITLE1=Casper
TTITLE2=The Longer You Live
TTITLE3=The Best Days of Our Lives
TTITLE4=Nothin's Gonna Change
TTITLE5=Hearts on the Tail of a Kite
TTITLE6=The Long Hot Summer
TTITLE7=Someday
TTITLE8=Look Forward Angel
TTITLE9=Crazy Blue
TTITLE10=Nothin' for Serious
TTITLE11=Son of a Gun
TTITLE12=Carmen
TTITLE13=I Had a Dream
EXTD=
EXTT0=
EXTT1=
EXTT2=
EXTT3=
EXTT4=
EXTT5=
EXTT6=
EXTT7=
EXTT8=
EXTT9=
EXTT10=
EXTT11=
EXTT12=
EXTT13=
PLAYORDER=
